<svg width="195" height="48" viewBox="0 0 195 48" fill="none" xmlns="http://www.w3.org/2000/svg">
<path d="M15.166 7.74633H0V4.49787H15.166V7.74633Z" fill="black"/>
<path d="M18.8672 4.24799H22.8392L36.5608 40.1628H32.5888L18.8672 4.24799Z" fill="black"/>
<path d="M57.6848 40.7534H37.0122V37.3232H57.6848V40.7534Z" fill="black"/>
<path d="M60.7767 23.8978C60.7767 20.4752 61.2281 17.1888 62.1308 14.0388C63.0486 10.8888 64.4102 8.0265 66.2157 5.45196C68.0211 2.87743 69.8943 1.0601 71.8352 0L72.6928 2.77142C70.4961 4.46758 68.6907 7.05726 67.2764 10.5405C65.8771 14.0237 65.1098 17.9233 64.9744 22.2395L64.9518 24.1704C64.9518 30.0161 66.0126 35.0894 68.134 39.3904C69.4129 41.965 70.9325 43.9792 72.6928 45.433L71.8352 48C69.8341 46.8793 67.9233 45.0014 66.1028 42.3663C62.5521 37.2172 60.7767 31.0611 60.7767 23.8978Z" fill="black"/>
<path d="M94.6493 2.33762L91.0904 3.54723C92.2459 5.96645 94.8804 13.1776 95.6199 15.8294L99.2251 14.5733C98.4394 11.968 95.6662 4.57074 94.6493 2.33762ZM115.171 5.31512L110.919 4.10551C109.994 11.084 107.175 18.5278 103.524 23.2266C98.8554 29.1816 91.9686 33.6479 85.3591 35.6019L88.5483 38.8585C95.0653 36.5323 101.906 31.7404 106.667 25.4132C110.457 20.3887 112.952 13.7359 114.339 7.96695C114.524 7.22258 114.848 6.10602 115.171 5.31512ZM81.7539 5.12902L78.1025 6.4782C79.2118 8.47871 82.401 16.3412 83.2792 19.2256L86.9306 17.8764C85.8675 14.8524 82.9556 7.73434 81.7539 5.12902Z" fill="black"/>
<path d="M132.589 24.1249C132.589 27.5021 132.145 30.743 131.258 33.8476C130.385 36.9371 129.039 39.7918 127.218 42.4117C125.413 45.0317 123.517 46.8945 121.531 48L120.651 45.433C122.968 43.646 124.826 40.8746 126.225 37.1188C127.639 33.3478 128.362 29.168 128.392 24.5793V23.8523C128.392 20.672 128.061 17.7189 127.399 14.9929C126.737 12.2518 125.811 9.79839 124.623 7.63275C123.449 5.46711 122.125 3.77851 120.651 2.56697L121.531 0C123.517 1.10554 125.405 2.95315 127.195 5.54283C129.001 8.13251 130.348 10.9872 131.235 14.107C132.138 17.2267 132.589 20.566 132.589 24.1249Z" fill="black"/>
<path d="M156.625 40.7534H135.952V37.3232H156.625V40.7534Z" fill="black"/>
<path d="M160.71 40.1628H157.121L170.843 4.24799H174.409L160.71 40.1628Z" fill="black"/>
<path d="M194.133 7.74633H178.967V4.49787H194.133V7.74633Z" fill="black"/>
</svg>
